<?xml version="1.0" encoding="utf-8"?>
<!-- Generator: Adobe Illustrator 25.4.1, SVG Export Plug-In . SVG Version: 6.00 Build 0)  -->
<svg version="1.1" id="Capa_2" xmlns="http://www.w3.org/2000/svg" xmlns:xlink="http://www.w3.org/1999/xlink" x="0px" y="0px"
	 viewBox="0 0 270 70" style="enable-background:new 0 0 270 70;" xml:space="preserve">
<style type="text/css">
	.st0{clip-path:url(#SVGID_00000176037678470636880460000010225447030249819839_);}
	.st1{fill:#FFFFFF;}
	.st2{fill:#006BF6;}
	.st3{fill:#252729;}
</style>
<g>
	<defs>
		<rect id="SVGID_1_" width="270" height="70"/>
	</defs>
	<clipPath id="SVGID_00000055672555036785420970000013521041960895482035_">
		<use xlink:href="#SVGID_1_"  style="overflow:visible;"/>
	</clipPath>
	<g style="clip-path:url(#SVGID_00000055672555036785420970000013521041960895482035_);">
		<path class="st1" d="M0.3,69h3.9v-4.3h2.2c3.3,0,5.5-2,5.5-5.1c0-3.1-2.2-5.1-5.4-5.1H0.3V69z M4.3,61.6v-4h1.4
			c1.4,0,2.2,0.7,2.2,2c0,1.2-0.8,2-2.2,2H4.3z"/>
		<path class="st1" d="M13.4,69h3.9v-4.8h1.4l2.6,4.8h4.3l-3-5.4c1.5-0.7,2.5-2.2,2.5-4.2c0-3.1-2.2-4.9-5.4-4.9h-6.3V69z
			 M17.4,61.1v-3.5h1.4c1.4,0,2.2,0.5,2.2,1.8c0,1.2-0.8,1.7-2.2,1.7H17.4z"/>
		<path class="st1" d="M30.6,69l0.8-2.8h4.8l0.8,2.8h4.3l-4.8-14.5h-5.4L26.3,69H30.6z M32.3,63.3l1.4-4.8h0.1l1.4,4.8H32.3z"/>
		<path class="st1" d="M55.6,59.9c-0.3-3.6-3-5.7-6.6-5.7c-3.9,0-7,2.6-7,7.5c0,4.8,3,7.5,7,7.5c4.3,0,6.4-3,6.6-5.4l-4,0
			c-0.2,1.2-1.1,2-2.5,2c-1.9,0-3-1.4-3-4c0-2.5,1.1-4,3.1-4c1.5,0,2.4,0.9,2.5,2.2H55.6z"/>
		<path class="st1" d="M57,57.6h4.4V69h3.9V57.6h4.4v-3.2H57V57.6z"/>
		<path class="st1" d="M75.1,54.5h-3.9V69h3.9V54.5z"/>
		<path class="st1" d="M90.5,59.9c-0.3-3.6-3-5.7-6.6-5.7c-3.9,0-7,2.6-7,7.5c0,4.8,3,7.5,7,7.5c4.3,0,6.4-3,6.6-5.4l-4,0
			c-0.2,1.2-1.1,2-2.5,2c-1.9,0-3-1.4-3-4c0-2.5,1.1-4,3.1-4c1.5,0,2.4,0.9,2.5,2.2H90.5z"/>
		<path class="st1" d="M100.9,54.5v9c0,1.4-1,2.3-2.3,2.3c-1.4,0-2.3-1-2.3-2.3v-9h-3.9v9.3c0,3.3,2.5,5.4,6.3,5.4
			c3.7,0,6.3-2.1,6.3-5.4v-9.3H100.9z"/>
		<path class="st1" d="M106.8,54.5V69h3.9v-8.5h0.1l3.2,8.4h2.3l3.2-8.3h0.1V69h3.9V54.5h-4.9l-3.4,8.2h-0.2l-3.4-8.2H106.8z"/>
		<path class="st1" d="M133.2,69l0.8-2.8h4.8l0.8,2.8h4.3l-4.8-14.5h-5.4L128.9,69H133.2z M134.9,63.3l1.4-4.8h0.1l1.4,4.8H134.9z"
			/>
		<path class="st1" d="M145.3,69h3.9v-4.8h1.4l2.6,4.8h4.3l-3-5.4c1.5-0.7,2.5-2.2,2.5-4.2c0-3.1-2.2-4.9-5.4-4.9h-6.3V69z
			 M149.2,61.1v-3.5h1.4c1.4,0,2.2,0.5,2.2,1.8c0,1.2-0.8,1.7-2.2,1.7H149.2z"/>
		<path class="st1" d="M158.3,57.6h4.4V69h3.9V57.6h4.4v-3.2h-12.6V57.6z"/>
		<path class="st1" d="M185.8,59.3h4c-0.3-2.9-3-5-6.4-5c-3.9,0-7.1,2.7-7.1,7.5c0,4.6,2.9,7.4,7.1,7.4c3.8,0,6.5-2.3,6.5-6.3v-2
			h-6.4v2.8h2.6c0,1.3-0.9,2.1-2.7,2.1c-2,0-3.1-1.5-3.1-4.1c0-2.5,1.1-4,3.1-4C184.7,57.7,185.6,58.3,185.8,59.3z"/>
		<path class="st1" d="M195.2,69l0.8-2.8h4.8l0.8,2.8h4.3l-4.8-14.5h-5.4L190.9,69H195.2z M196.9,63.3l1.4-4.8h0.1l1.4,4.8H196.9z"
			/>
		<path class="st1" d="M207.3,69h9.8v-3.2h-5.9V54.5h-3.9V69z"/>
		<path class="st1" d="M218.7,69h9.8v-3.2h-5.9V54.5h-3.9V69z"/>
		<path class="st1" d="M230.1,69h10.5v-3.2h-6.5v-2.5h6v-3.2h-6v-2.5h6.5v-3.2h-10.5V69z"/>
		<path class="st1" d="M242.6,69h3.9v-4.8h1.4l2.6,4.8h4.3l-3-5.4c1.5-0.7,2.5-2.2,2.5-4.2c0-3.1-2.2-4.9-5.4-4.9h-6.3V69z
			 M246.5,61.1v-3.5h1.4c1.4,0,2.2,0.5,2.2,1.8c0,1.2-0.8,1.7-2.2,1.7H246.5z"/>
		<path class="st1" d="M254.7,54.5l5.3,10V69h3.9v-4.6l5.3-10h-4.4l-2.8,5.9h-0.1l-2.8-5.9H254.7z"/>
		<path class="st2" d="M118,2c0-1.1,0.9-2,2-2h28c1.1,0,2,0.9,2,2v28c0,1.1-0.9,2-2,2h-28c-1.1,0-2-0.9-2-2V2z"/>
		<path class="st3" d="M150,6h-32v2h32V6z"/>
		<path class="st3" d="M131,6h-2v26h2V6z"/>
	</g>
</g>
</svg>
